<?xml version="1.0" encoding="utf-8"?>
<!-- Generator: Adobe Illustrator 23.1.1, SVG Export Plug-In . SVG Version: 6.00 Build 0)  -->
<svg version="1.1" id="Layer_1" xmlns="http://www.w3.org/2000/svg" xmlns:xlink="http://www.w3.org/1999/xlink" x="0px" y="0px"
	 viewBox="0 0 80.6 30" style="enable-background:new 0 0 80.6 30;" xml:space="preserve">
<style type="text/css">
	.st0{fill:#9C9C9C;}
</style>
<g>
	<g id="logo-reduzido" transform="translate(0)">
		<path id="Path_1" class="st0" d="M10.2,0.9v18.2c0,1.3-0.1,2.5-0.3,3.7c-0.2,1-0.6,1.9-1.2,2.8c-0.8,1.3-2,2.3-3.4,3
			c-1.4,0.7-3,1.1-4.6,1.1c-0.1,0-0.3,0-0.7,0v-0.6c0.2,0,0.4,0,0.7,0c1.6,0,3.2-0.4,4.5-1.2c2.1-1.2,3.7-3.2,4.1-5.6
			c0.2-1.1,0.3-2.1,0.3-3.2V0.9H10.2z M6.7,0.9h2.2v18.2c0,1.1-0.1,2.3-0.3,3.4c-0.2,0.9-0.6,1.7-1,2.4c-0.7,1.1-1.7,2-2.9,2.6
			c-1.2,0.6-2.6,1-3.9,1c-0.1,0-0.2,0-0.3,0c-0.1,0-0.2,0-0.4,0v-2h0.3c0.8,0,1.6-0.1,2.4-0.4c0.7-0.2,1.4-0.6,2-1.1
			c0.7-0.6,1.2-1.3,1.6-2.2c0.3-1,0.5-2.1,0.5-3.2L6.7,0.9L6.7,0.9z"/>
		<path id="Path_2" class="st0" d="M40.1,15.1c0-3-1.2-6-3.3-8.1c-1-1-2.3-1.9-3.7-2.5C29.8,3.1,26.1,3.4,23,5.2
			c-5.5,3.2-7.4,10.3-4.1,15.8c1,1.7,2.4,3.1,4.1,4.1c3.5,2.1,7.9,2.1,11.5,0C38,23,40.1,19.2,40.1,15.1 M40.7,15.1
			c0,1.6-0.3,3.2-0.9,4.6c-0.6,1.4-1.5,2.8-2.6,3.9c-1.1,1.1-2.4,2-3.9,2.6c-1.5,0.6-3,1-4.6,1c-2.1,0-4.2-0.5-6-1.6
			c-3.7-2.2-6-6.2-6-10.5c0-2.1,0.5-4.2,1.6-6.1c1-1.8,2.5-3.3,4.4-4.4c1.8-1.1,3.9-1.6,6-1.6c3.2,0,6.2,1.3,8.5,3.5
			C39.4,8.9,40.7,11.9,40.7,15.1 M41.4,15.1c0-3.4-1.3-6.6-3.7-9C36.5,5,35.1,4,33.6,3.4c-3.7-1.5-7.9-1.3-11.3,0.7
			C18.4,6.4,16,10.6,16,15.2c0,2.2,0.6,4.5,1.7,6.4c1.1,1.9,2.7,3.5,4.6,4.7c1.9,1.1,4.1,1.7,6.4,1.7c1.7,0,3.4-0.3,4.9-1
			c1.5-0.7,2.9-1.6,4.1-2.8C40.1,21.8,41.4,18.5,41.4,15.1 M43.6,15.1c0,2.6-0.7,5.2-2,7.5c-1.3,2.2-3.2,4.1-5.4,5.4
			c-4.6,2.7-10.3,2.7-14.9,0c-2.3-1.3-4.1-3.2-5.4-5.4c-2.7-4.6-2.7-10.3,0-14.9c1.3-2.2,3.2-4.1,5.4-5.4c4.6-2.7,10.3-2.7,14.9,0
			c2.3,1.3,4.1,3.2,5.4,5.4C42.9,10,43.6,12.5,43.6,15.1"/>
		<path id="Path_3" class="st0" d="M43.8,4.1h6.2V3.6h-6.2V4.1z M53.5,3.6v25.9h0.6V4.1h6.8V3.6H53.5z M43.8,0.9v2h6.9v26.6h2.1V2.9
			h8.1v-2L43.8,0.9z"/>
		<path id="Path_4" class="st0" d="M64.8,20.4l-3.3,9h0.6l3.1-8.4h8.7l3.1,8.4h0.6l-3.3-9H64.8z M66.1,17h0.6l2.8-7.6l2.8,7.6H73
			l-3.4-9.3L66.1,17z M69.6,5.7l4.5,12h-8.9L69.6,5.7z M69.6,0L58.5,29.4h2.3l3.6-9.7h10.5l3.6,9.7h2.3L69.6,0z"/>
	</g>
</g>
</svg>
